<?xml version="1.0" encoding="UTF-8" standalone="no"?>
<svg
   viewBox="0 0 512 512"
   version="1.1"
   id="svg4"
   sodipodi:docname="PeaceSleep.svg"
   inkscape:version="1.2.2 (732a01da63, 2022-12-09)"
   inkscape:export-filename="PeaceSleep.png"
   inkscape:export-xdpi="111.95789"
   inkscape:export-ydpi="111.95789"
   width="512"
   height="512"
   xmlns:inkscape="http://www.inkscape.org/namespaces/inkscape"
   xmlns:sodipodi="http://sodipodi.sourceforge.net/DTD/sodipodi-0.dtd"
   xmlns="http://www.w3.org/2000/svg"
   xmlns:svg="http://www.w3.org/2000/svg">
  <defs
     id="defs8" />
  <sodipodi:namedview
     id="namedview6"
     pagecolor="#ffffff"
     bordercolor="#999999"
     borderopacity="1"
     inkscape:showpageshadow="0"
     inkscape:pageopacity="0"
     inkscape:pagecheckerboard="0"
     inkscape:deskcolor="#d1d1d1"
     showgrid="false"
     inkscape:zoom="1.1559539"
     inkscape:cx="192.91427"
     inkscape:cy="288.93887"
     inkscape:window-width="1920"
     inkscape:window-height="1017"
     inkscape:window-x="-8"
     inkscape:window-y="-8"
     inkscape:window-maximized="1"
     inkscape:current-layer="svg4" />
  <!--! Font Awesome Pro 6.4.2 by @fontawesome - https://fontawesome.com License - https://fontawesome.com/license (Commercial License) Copyright 2023 Fonticons, Inc. -->
  <path
     d="m 291.81945,31.029961 c -123.5,0 -223.499998,100.299999 -223.499998,223.999999 0,123.7 99.999998,224 223.499998,224 60.6,0 115.5,-24.2 155.8,-63.4 5,-4.9 6.3,-12.5 3.1,-18.7 -3.2,-6.2 -10.1,-9.7 -17,-8.5 -9.8,1.7 -19.8,2.6 -30.1,2.6 -96.9,0 -175.5,-78.8 -175.5,-176 0,-65.8 36,-123.099999 89.3,-153.299999 6.1,-3.5 9.2,-10.5 7.7,-17.3 -1.5,-6.8 -7.3,-11.9 -14.3,-12.5 -6.3,-0.5 -12.6,-0.8 -19,-0.8 z"
     id="path2"
     style="fill:#5f9ea0;fill-opacity:1" />
</svg>
